# xmcd
# 
# Track frame offsets:
#     300
#     17452
#     31898
#     50120
#     69237
#     80291
#     103706
#     121280
#     135715
#     156440
# 
# Disc length: 2480
# 
# Revision: 0
# Processed by: cddbd v1.5.2PL0 Copyright (c) Steve Scherf et al.
# Submitted via: fre:ac v1.0.27
# 
DISCID=7e09ac0a
DTITLE=Cotton Jones - Paranoid Cocoon
DYEAR=2009
DGENRE=Folk/Rock
TTITLE0=Up a Tree (Went This Heart I Have)
TTITLE1=Gotta Cheer Up
TTITLE2=Some Strange Rain
TTITLE3=Gone the Bells
TTITLE4=Photo Summerlude
TTITLE5=By Morning Light
TTITLE6=Cotton and Velvet
TTITLE7=Little Ashtray in the Sun
TTITLE8=Blood Red Sentimental Blues
TTITLE9=I Am the Changer
EXTD=
EXTT0=
EXTT1=
EXTT2=
EXTT3=
EXTT4=
EXTT5=
EXTT6=
EXTT7=
EXTT8=
EXTT9=
PLAYORDER=
